<svg height="512" viewBox="0 0 64 64" width="512" xmlns="http://www.w3.org/2000/svg"><g id="date-agenda-diary-time-heart"><path d="m5 11h54a2 2 0 0 1 2 2v48a0 0 0 0 1 0 0h-58a0 0 0 0 1 0 0v-48a2 2 0 0 1 2-2z" fill="#ffeb99"/><path d="m61 13v48h-4v-48a2.006 2.006 0 0 0 -2-2h4a2.006 2.006 0 0 1 2 2z" fill="#ebbf00"/><path d="m15 11v2h-6v-7a3 3 0 0 1 6 0z" fill="#2488ff"/><path d="m15 6v7h-3v-7a2.993 2.993 0 0 0 -.88-2.12 3.3 3.3 0 0 0 -.62-.48 3.026 3.026 0 0 1 1.5-.4 3 3 0 0 1 3 3z" fill="#005ece"/><path d="m35 11v2h-6v-7a3 3 0 0 1 6 0z" fill="#2488ff"/><path d="m35 6v7h-3v-7a2.993 2.993 0 0 0 -.88-2.12 3.3 3.3 0 0 0 -.62-.48 3.026 3.026 0 0 1 1.5-.4 3 3 0 0 1 3 3z" fill="#005ece"/><path d="m55 11v2h-6v-7a3 3 0 0 1 6 0z" fill="#2488ff"/><path d="m55 6v7h-3v-7a2.993 2.993 0 0 0 -.88-2.12 3.3 3.3 0 0 0 -.62-.48 3.026 3.026 0 0 1 1.5-.4 3 3 0 0 1 3 3z" fill="#005ece"/><path d="m7 27h50v30h-50z" fill="#2488ff"/><path d="m53 27h4v30h-4z" fill="#005ece"/><g fill="#ed539d"><path d="m53 17a2.006 2.006 0 0 1 2 2c0 2-4 5-4 5s-4-3-4-5a2 2 0 0 1 4 0 2.006 2.006 0 0 1 2-2z"/><path d="m34 17a2.006 2.006 0 0 1 2 2c0 2-4 5-4 5s-4-3-4-5a2 2 0 0 1 4 0 2.006 2.006 0 0 1 2-2z"/><path d="m14 17a2.006 2.006 0 0 1 2 2c0 2-4 5-4 5s-4-3-4-5a2 2 0 0 1 4 0 2.006 2.006 0 0 1 2-2z"/><path d="m38 31a6 6 0 0 1 6 6c0 7-12 16-12 16s-12-9-12-16a6 6 0 0 1 12 0 6 6 0 0 1 6-6z"/></g><path d="m44 37c0 7-12 16-12 16a55.057 55.057 0 0 1 -7.19-6.66c1.82 1.63 3.19 2.66 3.19 2.66s12-9 12-16a5.91 5.91 0 0 0 -.26-1.74 6 6 0 0 1 4.26 5.74z" fill="#e4187a"/><path d="m59 10h-3v-4a4 4 0 0 0 -8 0v4h-12v-4a4 4 0 0 0 -8 0v4h-12v-4a4 4 0 0 0 -8 0v4h-3a3.009 3.009 0 0 0 -3 3v48a1 1 0 0 0 1 1h58a1 1 0 0 0 1-1v-48a3.009 3.009 0 0 0 -3-3zm-9-4a2 2 0 0 1 4 0v6h-4zm-20 0a2 2 0 0 1 4 0v6h-4zm-20 0a2 2 0 0 1 4 0v6h-4zm50 54h-56v-47a1 1 0 0 1 1-1h3v1a1 1 0 0 0 1 1h6a1 1 0 0 0 1-1v-1h12v1a1 1 0 0 0 1 1h6a1 1 0 0 0 1-1v-1h12v1a1 1 0 0 0 1 1h6a1 1 0 0 0 1-1v-1h3a1 1 0 0 1 1 1z"/><path d="m57 26h-50a1 1 0 0 0 -1 1v30a1 1 0 0 0 1 1h50a1 1 0 0 0 1-1v-30a1 1 0 0 0 -1-1zm-1 30h-48v-28h48z"/><path d="m31.4 53.8a1 1 0 0 0 1.2 0c.506-.38 12.4-9.385 12.4-16.8a7 7 0 0 0 -13-3.6 7 7 0 0 0 -13 3.6c0 7.415 11.894 16.42 12.4 16.8zm-5.4-21.8a5.006 5.006 0 0 1 5 5 1 1 0 0 0 2 0 5 5 0 0 1 10 0c0 5.565-8.633 12.841-11 14.734-3.561-2.802-11-9.708-11-14.734a5.006 5.006 0 0 1 5-5z"/><path d="m31.4 24.8a1 1 0 0 0 1.2 0c.735-.551 4.4-3.42 4.4-5.8a3 3 0 0 0 -5-2.234 3 3 0 0 0 -5 2.234c0 2.38 3.665 5.249 4.4 5.8zm-1.4-6.8a1 1 0 0 1 1 1 1 1 0 0 0 2 0 1 1 0 0 1 2 0c0 .817-1.463 2.458-3 3.727-1.537-1.269-3-2.91-3-3.727a1 1 0 0 1 1-1z"/><path d="m50.4 24.8a1 1 0 0 0 1.2 0c.735-.551 4.4-3.42 4.4-5.8a3 3 0 0 0 -5-2.234 3 3 0 0 0 -5 2.234c0 2.38 3.665 5.249 4.4 5.8zm-1.4-6.8a1 1 0 0 1 1 1 1 1 0 0 0 2 0 1 1 0 0 1 2 0c0 .817-1.463 2.458-3 3.727-1.537-1.269-3-2.91-3-3.727a1 1 0 0 1 1-1z"/><path d="m11.4 24.8a1 1 0 0 0 1.2 0c.735-.551 4.4-3.42 4.4-5.8a3 3 0 0 0 -5-2.234 3 3 0 0 0 -5 2.234c0 2.38 3.665 5.249 4.4 5.8zm-1.4-6.8a1 1 0 0 1 1 1 1 1 0 0 0 2 0 1 1 0 0 1 2 0c0 .817-1.463 2.458-3 3.727-1.537-1.269-3-2.91-3-3.727a1 1 0 0 1 1-1z"/></g></svg>