<svg id="Capa_1" enable-background="new 0 0 511.954 511.954" height="512" viewBox="0 0 511.954 511.954" width="512" xmlns="http://www.w3.org/2000/svg"><g><g><g fill="#64d465"><path d="m192.25 211.387c-4.684-2.087-9.075 3.464-6.039 7.624 10.638 14.582 24.39 40.649 24.39 77.968h45.19s-8.908-61.248-63.541-85.592z"/><path d="m166.044 237.104c-3.277-1.46-6.348 2.423-4.225 5.333 7.442 10.201 17.062 28.436 17.062 54.542h31.612s-6.231-42.845-44.449-59.875z"/><path d="m313.797 225.372c3.919-1.746 7.592 2.898 5.053 6.378-8.9 12.2-20.405 34.007-20.405 65.228h-37.806c0 .001 7.452-51.239 53.158-71.606z"/></g><path d="m200.626 215.603c-2.667-1.499-5.452-2.913-8.376-4.216-4.684-2.087-9.075 3.464-6.04 7.624 10.639 14.582 24.39 40.649 24.39 77.968h15.388c0-37.319-13.752-63.386-24.39-77.968-.798-1.095-1.072-2.285-.972-3.408z" fill="#40c140"/><path d="m166.044 237.104c-3.277-1.46-6.348 2.423-4.225 5.333 7.442 10.201 17.062 28.436 17.062 54.542h15.388c0-24.627-8.559-42.241-15.776-52.722-3.718-2.678-7.85-5.104-12.449-7.153z" fill="#40c140"/><path d="m319.498 230.468c1.006-3.215-2.25-6.634-5.701-5.096-45.706 20.367-53.158 71.607-53.158 71.607h15.388c-.001 0 6.375-43.808 43.471-66.511z" fill="#40c140"/><path d="m170.518 504.109h170.546c7.481 0 13.86-5.457 15.068-12.89l16.901-103.989h-234.484l16.901 103.989c1.208 7.432 7.587 12.89 15.068 12.89z" fill="#f87c68"/><path d="m203.117 491.219-16.901-103.989h-47.667l16.901 103.989c1.208 7.433 7.587 12.89 15.068 12.89h47.667c-7.481 0-13.86-5.458-15.068-12.89z" fill="#ec625e"/><path d="m138.945 389.661h233.692l5.542-34.098h-244.776z" fill="#ec625e"/><path d="m133.403 355.563 5.542 34.098h47.666l-5.541-34.098z" fill="#df4854"/><path d="m256.026 135.546c0-11.103 11.861-20.433 27.917-23.087 2.653-.439 4.283-3.177 3.334-5.693-5.064-13.423-4.003-26.616 2.887-33.376-6.165-3.966-13.958-6.894-22.686-8.337-3.526-.583-5.691-4.221-4.43-7.565 7.645-20.265 4.796-40.148-7.995-47.532-12.777-7.377-31.395.074-45.118 16.789-2.285 2.783-6.524 2.783-8.809 0-13.724-16.715-32.341-24.165-45.118-16.788-12.791 7.385-15.64 27.268-7.995 47.532 1.261 3.344-.904 6.982-4.43 7.565-21.337 3.527-37.098 15.925-37.098 30.679 0 14.753 15.761 27.151 37.098 30.678 3.526.583 5.691 4.221 4.43 7.565-7.645 20.264-4.796 40.148 7.995 47.532 12.777 7.377 31.395-.074 45.118-16.789 2.285-2.783 6.524-2.783 8.81 0 13.723 16.715 32.341 24.166 45.118 16.789 8.782-5.071 12.877-16.034 12.106-28.967-6.871-4.325-11.134-10.341-11.134-16.995z" fill="#f4dd45"/><g><path d="m174.763 133.976c1.261-3.343-.904-6.982-4.43-7.565-21.337-3.527-37.098-15.925-37.098-30.678s15.761-27.151 37.098-30.679c3.526-.583 5.691-4.221 4.43-7.565-7.388-19.585-4.973-38.811 6.744-46.745-9.072-4.376-18.23-4.983-25.499-.787-12.791 7.385-15.64 27.268-7.995 47.532 1.261 3.344-.905 6.982-4.43 7.565-21.337 3.527-37.098 15.925-37.098 30.679 0 14.753 15.761 27.151 37.098 30.678 3.526.583 5.691 4.221 4.43 7.565-7.645 20.264-4.795 40.148 7.995 47.532 7.268 4.196 16.427 3.589 25.499-.787-11.717-7.934-14.132-27.16-6.744-46.745z" fill="#fcc101"/></g><path d="m377.261 159.126c16.684-2.758 28.336-12.454 28.336-23.58s-11.652-20.822-28.336-23.58c-2.356-.39-3.78-2.816-2.947-5.023 5.979-15.848 3.415-30.808-6.234-36.379-9.634-5.562-23.858-.321-34.589 12.75-1.521 1.852-4.338 1.849-5.857 0-10.73-13.07-24.953-18.312-34.589-12.75-9.649 5.571-12.213 20.531-6.234 36.379.834 2.212-.596 4.635-2.948 5.023-16.684 2.758-28.336 12.455-28.336 23.58s11.652 20.822 28.336 23.58c2.352.389 3.782 2.811 2.948 5.023-5.979 15.848-3.415 30.808 6.234 36.379 10.983 6.343 25.472-1.646 34.589-12.75 1.521-1.852 4.338-1.849 5.857 0 10.73 13.069 24.954 18.313 34.589 12.75 9.649-5.571 12.213-20.531 6.234-36.379-.834-2.207.591-4.633 2.947-5.023z" fill="#dbedff"/><g><path d="m313.559 164.15c.834-2.212-.596-4.635-2.948-5.023-16.684-2.758-28.336-12.455-28.336-23.58s11.652-20.822 28.336-23.58c2.352-.389 3.782-2.812 2.948-5.023-5.202-13.79-3.931-26.9 2.843-33.745-8.218-5.208-16.838-6.398-23.358-2.634-9.649 5.571-12.213 20.531-6.234 36.379.834 2.212-.596 4.635-2.948 5.023-16.684 2.758-28.336 12.455-28.336 23.58s11.652 20.822 28.336 23.58c2.352.389 3.782 2.811 2.948 5.023-5.979 15.848-3.415 30.808 6.234 36.379 7.111 4.107 15.691 2.201 23.332-2.664-6.75-6.853-8.012-19.944-2.817-33.715z" fill="#b5dcff"/></g><ellipse cx="330.561" cy="135.546" fill="#f87c68" rx="25.562" ry="25.562" transform="matrix(.924 -.383 .383 .924 -26.709 136.818)"/><path d="m327.705 135.546c0-10.039 5.789-18.721 14.209-22.903-3.421-1.699-7.274-2.659-11.353-2.659-14.117 0-25.562 11.445-25.562 25.562s11.444 25.562 25.562 25.562c4.079 0 7.932-.96 11.353-2.659-8.419-4.182-14.209-12.864-14.209-22.903z" fill="#ec625e"/><ellipse cx="205.53" cy="95.732" fill="#f87c68" rx="33.968" ry="33.968" transform="matrix(.924 -.383 .383 .924 -20.99 85.94)"/><path d="m194.269 95.733c0-14.777 9.439-27.344 22.615-32.017-3.551-1.259-7.371-1.951-11.353-1.951-18.76 0-33.968 15.208-33.968 33.968s15.208 33.968 33.968 33.968c3.983 0 7.802-.692 11.353-1.951-13.176-4.673-22.615-17.24-22.615-32.017z" fill="#ec625e"/><path d="m384.969 296.216h-258.356c-5.139 0-9.305 4.166-9.305 9.305v41.746c0 5.139 4.166 9.305 9.305 9.305h258.356c5.139 0 9.305-4.166 9.305-9.305v-41.746c0-5.139-4.166-9.305-9.305-9.305z" fill="#f87c68"/><path d="m164.975 347.267v-41.746c0-5.139 4.166-9.305 9.305-9.305h-47.667c-5.139 0-9.305 4.166-9.305 9.305v41.746c0 5.139 4.166 9.305 9.305 9.305h47.667c-5.14 0-9.305-4.166-9.305-9.305z" fill="#ec625e"/></g><g><path d="m99.171 96.078c0 17.689 16.853 32.979 41.251 37.697-8.114 23.491-3.304 45.725 12.021 54.573 15.32 8.845 36.987 1.894 53.272-16.876 8.696 10.023 18.926 16.672 28.906 19.349 5.461 19.511 9.374 39.435 11.715 59.604-10.167-16.894-26.106-34.621-50.87-45.558-11.701-5.168-22.693 8.561-15.11 18.863 4.446 6.04 9.252 13.886 13.312 23.548-6.391-6.534-14.395-12.501-24.409-16.923-10.289-4.55-19.968 7.526-13.295 16.593 6.332 8.603 13.731 22.593 15.289 42.112h-44.455c-9.267 0-16.805 7.539-16.805 16.805v41.746c0 9.266 7.538 16.805 16.805 16.805h.418l21.018 128.445c1.81 11.062 11.26 19.092 22.47 19.092h170.546c11.209 0 20.659-8.029 22.469-19.092l5.261-32.15c.669-4.088-2.103-7.943-6.19-8.612-4.093-.675-7.944 2.103-8.612 6.19l-5.261 32.15c-.618 3.774-3.842 6.514-7.666 6.514h-170.547c-3.825 0-7.049-2.739-7.667-6.514l-15.08-92.156h216.039l-4.092 25.006c-.669 4.088 2.103 7.943 6.19 8.612 4.092.671 7.943-2.104 8.612-6.19.978-5.976 8.934-54.592 10.031-61.295h.418c9.267 0 16.805-7.539 16.805-16.805v-41.746c0-9.266-7.538-16.805-16.805-16.805h-78.779c1.602-24.522 10.836-42.022 18.698-52.703 7.091-9.629-3.187-22.458-14.121-17.63 0 .001-.001.001-.001.001-19.232 8.494-32.183 21.819-40.842 35.003 4.665-15.609 11.974-30.865 21.887-45.664 3.028 1.323 6.293 1.976 9.685 1.976 9.644-.001 20.267-5.189 29.065-14.639 12.681 13.618 29.145 18.384 41.018 11.531 11.877-6.857 15.979-23.494 10.522-41.288 18.136-4.172 30.495-16.048 30.495-29.757s-12.359-25.584-30.495-29.757c5.456-17.794 1.354-34.431-10.522-41.288-11.873-6.855-28.338-2.087-41.018 11.531-12.649-13.584-29.06-18.358-40.925-11.581-5.615-2.907-11.997-5.097-18.812-6.416 8.115-23.491 3.306-45.725-12.021-54.573-15.316-8.842-36.986-1.896-53.273 16.876-16.285-18.77-37.953-25.72-53.272-16.875-15.325 8.848-20.136 31.081-12.021 54.573-24.399 4.718-41.252 20.008-41.252 37.698zm175.116 68.206c1.586.519 3.228.975 4.92 1.365-3.732 12.171-2.99 23.799 1.651 32.128-8.858 12.911-15.89 26.175-21.07 39.732-2.24-15.496-5.387-30.834-9.415-45.944 3.025-.6 5.92-1.659 8.616-3.216 8.236-4.756 13.537-13.243 15.298-24.065zm-27.718 124.777h-28.461c-1.4-28.981-10.754-51.018-20.229-66.2 31.886 18.198 44.385 50.75 48.69 66.2zm-70.009-36.947c14.514 11.437 21.445 27.28 24.518 36.947h-14.764c-1.023-14.982-5.016-27.292-9.754-36.947zm-31.056 131.17-3.087-18.867h227.122l-3.087 18.867zm241.456-77.418v41.746c0 .995-.81 1.805-1.805 1.805-12.364 0-245.818 0-258.356 0-.995 0-1.805-.81-1.805-1.805v-41.746c0-.995.81-1.805 1.805-1.805h258.356c.996 0 1.805.81 1.805 1.805zm-81.113-67.32c-6.949 12.354-13.276 29.179-14.502 50.516h-21.022c3.705-12.505 13.261-35.802 35.524-50.516zm15.789-149.811c2.25 2.741 5.571 4.312 9.111 4.312s6.861-1.571 9.111-4.312c7.936-9.665 18.429-14.35 24.406-10.898 5.989 3.458 7.171 14.905 2.749 26.627-1.242 3.293-.944 6.933.817 9.986 1.774 3.077 4.804 5.174 8.312 5.753h-.001c12.337 2.04 21.641 8.784 21.641 15.688s-9.304 13.648-21.64 15.688c-3.508.58-6.537 2.676-8.312 5.753-1.762 3.054-2.06 6.693-.817 9.986 4.423 11.722 3.24 23.169-2.749 26.627-5.978 3.448-16.471-1.232-24.406-10.898-2.25-2.741-5.571-4.312-9.111-4.312s-6.861 1.571-9.111 4.312c-7.934 9.664-18.426 14.348-24.406 10.898-5.989-3.458-7.172-14.906-2.749-26.627 1.242-3.293.944-6.933-.817-9.986-1.774-3.077-4.804-5.174-8.311-5.753-8.719-1.441-21.641-6.896-21.641-15.688 0-6.904 9.304-13.648 21.64-15.688 3.505-.579 6.536-2.674 8.312-5.753 1.757-3.045 2.063-6.685.817-9.986-3.188-8.449-4.583-22.395 2.749-26.628 5.98-3.452 16.474 1.237 24.406 10.899zm-176.643-15.936c3.93-.65 7.323-2.999 9.31-6.445 1.97-3.416 2.303-7.486.914-11.166-6.401-16.968-4.413-33.113 4.728-38.39 9.124-5.267 24.085 1.062 35.571 15.053 2.52 3.068 6.238 4.828 10.201 4.828 3.964 0 7.683-1.76 10.202-4.829 11.485-13.99 26.444-20.322 35.571-15.053 9.141 5.277 11.128 21.422 4.727 38.391-1.389 3.682-1.055 7.752.915 11.167 1.987 3.446 5.381 5.794 9.31 6.444 4.718.78 9.163 2.048 13.157 3.739-3.928 9.098-3.31 20.077-.391 29.596-14.383 3.309-28.614 12.745-30.33 27.054-1.114 9.322 3.618 17.767 11.049 23.631-.199 8.744-3.247 15.542-8.437 18.539-2.75 1.588-6.033 2.116-9.589 1.704-.221-.039-.445-.068-.67-.087-8.094-1.194-17.505-7.16-25.312-16.67-2.52-3.069-6.237-4.829-10.202-4.829-3.964 0-7.682 1.76-10.201 4.829-11.486 13.99-26.446 20.319-35.571 15.053-9.141-5.277-11.129-21.423-4.729-38.389 1.39-3.682 1.057-7.752-.913-11.168-1.987-3.446-5.381-5.795-9.31-6.444-17.859-2.953-30.821-12.743-30.821-23.279-.001-10.537 12.961-20.327 30.821-23.279z"/><path d="m330.747 168.953c18.23 0 33.062-14.832 33.062-33.062s-14.831-33.062-33.062-33.062-33.062 14.832-33.062 33.062 14.832 33.062 33.062 33.062zm0-51.124c9.959 0 18.062 8.103 18.062 18.062s-8.103 18.062-18.062 18.062c-9.96 0-18.062-8.103-18.062-18.062s8.102-18.062 18.062-18.062z"/><path d="m186.791 132.971c3.684 1.893 8.206.441 10.099-3.243 1.894-3.685.441-8.206-3.243-10.099-8.881-4.563-14.397-13.587-14.397-23.552 0-14.594 11.873-26.468 26.467-26.468 14.595 0 26.468 11.874 26.468 26.468 0 8.604-4.216 16.704-11.277 21.667-3.389 2.381-4.205 7.06-1.824 10.448s7.06 4.207 10.449 1.824c11.054-7.768 17.652-20.455 17.652-33.939 0-22.865-18.603-41.468-41.468-41.468s-41.467 18.603-41.467 41.468c-.001 15.614 8.637 29.75 22.541 36.894z"/></g></g></svg>